<svg xmlns="http://www.w3.org/2000/svg" width="420mm" height="297mm" viewBox="0 0 1680 1188" xmlns:c2pa="http://c2pa.org/manifest"><metadata><c2pa:manifest>AAAWgmp1bWIAAAAeanVtZGMycGEAEQAQgAAAqgA4m3EDYzJwYQAAABZcanVtYgAAAEdqdW1kYzJtYQARABCAAACqADibcQN1cm46YzJwYTpmOWViNjdhZi1lNWY1LTRjMDctOWIwYS02MWI1ODlhMzFhYjEAAAADl2p1bWIAAAApanVtZGMyYXMAEQAQgAAAqgA4m3EDYzJwYS5hc3NlcnRpb25zAAAAALxqdW1iAAAARGp1bWRjYm9yABEAEIAAAKoAOJtxE2MycGEuaW5ncmVkaWVudC52MwAAAAAYYzJzaKxs7uUgeCzou07BDemITXwAAABwY2JvcqNpZGM6Zm9ybWF0bWltYWdlL3N2Zyt4bWxqaW5zdGFuY2VJRHgseG1wOmlpZDo3MTE1ZDQxOC05YTZmLTQxNDktODI0OC0zZDEzMWQ2YTZjOTZscmVsYXRpb25zaGlwaHBhcmVudE9mAAAB4mp1bWIAAABBanVtZGNib3IAEQAQgAAAqgA4m3ETYzJwYS5hY3Rpb25zLnYyAAAAABhjMnNotfo+63uZ1YwrsJ/ikv/d4QAAAZljYm9yomdhY3Rpb25zgqJmYWN0aW9ua2MycGEub3BlbmVkanBhcmFtZXRlcnOha2luZ3JlZGllbnRzgaJjdXJseC1zZWxmI2p1bWJmPWMycGEuYXNzZXJ0aW9ucy9jMnBhLmluZ3JlZGllbnQudjNkaGFzaFggb2bmp2dv34wZ6tEhfd7UWZoailU22SCJ0jSfJ95iDKWkZmFjdGlvbngdY29tLmFudGhyb3BpYy5jbGF1ZGUucHJvdmlkZWRqcGFyYW1ldGVyc6F4H2NvbS5hbnRocm9waWMub3JpZ2luLWNvbmZpZGVuY2VndW5rbm93bmtkZXNjcmlwdGlvbnhmQ2xhdWRlIHByb3ZpZGVkIHRoaXMgZmlsZSBhdCB0aGUgcmVxdWVzdCBvZiBhIHVzZXIgYW5kIG1heSBoYXZlIGNyZWF0ZWQgb3IgbW9kaWZpZWQgdGhlIGZpbGUgY29udGVudHMubXNvZnR3YXJlQWdlbnShZG5hbWVmQ2xhdWRlcmFsbEFjdGlvbnNJbmNsdWRlZPUAAADIanVtYgAAAEBqdW1kY2JvcgARABCAAACqADibcRNjMnBhLmhhc2guZGF0YQAAAAAYYzJzaJjibm3B6Xlq5H3gY7ubXQQAAACAY2JvcqVjYWxnZnNoYTI1NmNwYWRNAAAAAAAAAAAAAAAAAGRoYXNoWCAufw1d0W7uxzIkXK6xCyjp8b5t2SOv1qHvowXnMG0plGRuYW1lbmp1bWJmIG1hbmlmZXN0amV4Y2x1c2lvbnOBomVzdGFydBicZmxlbmd0aBkeBAAAAj5qdW1iAAAAJ2p1bWRjMmNsABEAEIAAAKoAOJtxA2MycGEuY2xhaW0udjIAAAACD2Nib3KlY2FsZ2ZzaGEyNTZpc2lnbmF0dXJleE1zZWxmI2p1bWJmPS9jMnBhL3VybjpjMnBhOmY5ZWI2N2FmLWU1ZjUtNGMwNy05YjBhLTYxYjU4OWEzMWFiMS9jMnBhLnNpZ25hdHVyZWppbnN0YW5jZUlEeCx4bXA6aWlkOjJkNjAxZWIzLThhNWEtNGIxNC1iYmQwLWYwYTQ4MTZjZjY4YXJjcmVhdGVkX2Fzc2VydGlvbnODomN1cmx4LXNlbGYjanVtYmY9YzJwYS5hc3NlcnRpb25zL2MycGEuaW5ncmVkaWVudC52M2RoYXNoWCBvZuanZ2/fjBnq0SF93tRZmhqKVTbZIInSNJ8n3mIMpaJjdXJseCpzZWxmI2p1bWJmPWMycGEuYXNzZXJ0aW9ucy9jMnBhLmFjdGlvbnMudjJkaGFzaFggxI6J/q1z653P2HKYc8qSmHR7LcHDVN/xCKnXjAib3ISiY3VybHgpc2VsZiNqdW1iZj1jMnBhLmFzc2VydGlvbnMvYzJwYS5oYXNoLmRhdGFkaGFzaFgg6dnx9ieQrwzwUgakPH5P6BQfjYbRId/9ws7SxK0bHf90Y2xhaW1fZ2VuZXJhdG9yX2luZm+jZG5hbWVvQW50aHJvcGljIEZpbGVzZ3ZlcnNpb25lMS4wLjBrc3BlY1ZlcnNpb25lMi40LjAAABA4anVtYgAAAChqdW1kYzJjcwARABCAAACqADibcQNjMnBhLnNpZ25hdHVyZQAAABAIY2JvctKEWQISogEmGCFZAgowggIGMIIBjaADAgECAhRA5aAK7sI50L64g/oGQgU9Z1UTADAKBggqhkjOPQQDAzBJMRcwFQYDVQQKEw5BbnRocm9waWMsIFBCQzEuMCwGA1UEAxMlQW50aHJvcGljIENvbnRlbnQgQ3JlZGVudGlhbHMgUm9vdCBDQTAeFw0yNjA4MDcxODQzNTZaFw0yODA4MDYxOTQzNTZaMEQxFzAVBgNVBAoTDkFudGhyb3BpYywgUEJDMSkwJwYDVQQDEyBBbnRocm9waWMgQ2xhdWRlIENvbnRlbnQgU2lnbmluZzBZMBMGByqGSM49AgEGCCqGSM49AwEHA0IABJh6CmvLUBgFFNU0vUKlOVtE6djd17L5SuwX0LemFisBM3dkd/3cyjxFA3Qo5S46fX0/ihY0VZ7mfb9KF703t5OjWDBWMA4GA1UdDwEB/wQEAwIHgDAVBgNVHSUEDjAMBgorBgEEAYPoXgIBMAwGA1UdEwEB/wQCMAAwHwYDVR0jBBgwFoAUzlHiBIFOZFsj+OPEz5o+nMHXXMIwCgYIKoZIzj0EAwMDZwAwZAIwMXMdFJ4BetLLVY7ORuE9noqbbAZOZn/aArXyTwFAZfKrPzxF2vPoJNf1+UCdg1XGAjBwX1zd9WGqYkqmL5SFqw1QySjr1zJfpJM9+1rdDwSPLMOPOjKuiXjoU/pUUeG9RwmhY3BhZFkNngAAAAAAAAAAAAAAAAAAAAAAAAAAAAAAAAAAAAAAAAAAAAAAAAAAAAAAAAAAAAAAAAAAAAAAAAAAAAAAAAAAAAAAAAAAAAAAAAAAAAAAAAAAAAAAAAAAAAAAAAAAAAAAAAAAAAAAAAAAAAAAAAAAAAAAAAAAAAAAAAAAAAAAAAAAAAAAAAAAAAAAAAAAAAAAAAAAAAAAAAAAAAAAAAAAAAAAAAAAAAAAAAAAAAAAAAAAAAAAAAAAAAAAAAAAAAAAAAAAAAAAAAAAAAAAAAAAAAAAAAAAAAAAAAAAAAAAAAAAAAAAAAAAAAAAAAAAAAAAAAAAAAAAAAAAAAAAAAAAAAAAAAAAAAAAAAAAAAAAAAAAAAAAAAAAAAAAAAAAAAAAAAAAAAAAAAAAAAAAAAAAAAAAAAAAAAAAAAAAAAAAAAAAAAAAAAAAAAAAAAAAAAAAAAAAAAAAAAAAAAAAAAAAAAAAAAAAAAAAAAAAAAAAAAAAAAAAAAAAAAAAAAAAAAAAAAAAAAAAAAAAAAAAAAAAAAAAAAAAAAAAAAAAAAAAAAAAAAAAAAAAAAAAAAAAAAAAAAAAAAAAAAAAAAAAAAAAAAAAAAAAAAAAAAAAAAAAAAAAAAAAAAAAAAAAAAAAAAAAAAAAAAAAAAAAAAAAAAAAAAAAAAAAAAAAAAAAAAAAAAAAAAAAAAAAAAAAAAAAAAAAAAAAAAAAAAAAAAAAAAAAAAAAAAAAAAAAAAAAAAAAAAAAAAAAAAAAAAAAAAAAAAAAAAAAAAAAAAAAAAAAAAAAAAAAAAAAAAAAAAAAAAAAAAAAAAAAAAAAAAAAAAAAAAAAAAAAAAAAAAAAAAAAAAAAAAAAAAAAAAAAAAAAAAAAAAAAAAAAAAAAAAAAAAAAAAAAAAAAAAAAAAAAAAAAAAAAAAAAAAAAAAAAAAAAAAAAAAAAAAAAAAAAAAAAAAAAAAAAAAAAAAAAAAAAAAAAAAAAAAAAAAAAAAAAAAAAAAAAAAAAAAAAAAAAAAAAAAAAAAAAAAAAAAAAAAAAAAAAAAAAAAAAAAAAAAAAAAAAAAAAAAAAAAAAAAAAAAAAAAAAAAAAAAAAAAAAAAAAAAAAAAAAAAAAAAAAAAAAAAAAAAAAAAAAAAAAAAAAAAAAAAAAAAAAAAAAAAAAAAAAAAAAAAAAAAAAAAAAAAAAAAAAAAAAAAAAAAAAAAAAAAAAAAAAAAAAAAAAAAAAAAAAAAAAAAAAAAAAAAAAAAAAAAAAAAAAAAAAAAAAAAAAAAAAAAAAAAAAAAAAAAAAAAAAAAAAAAAAAAAAAAAAAAAAAAAAAAAAAAAAAAAAAAAAAAAAAAAAAAAAAAAAAAAAAAAAAAAAAAAAAAAAAAAAAAAAAAAAAAAAAAAAAAAAAAAAAAAAAAAAAAAAAAAAAAAAAAAAAAAAAAAAAAAAAAAAAAAAAAAAAAAAAAAAAAAAAAAAAAAAAAAAAAAAAAAAAAAAAAAAAAAAAAAAAAAAAAAAAAAAAAAAAAAAAAAAAAAAAAAAAAAAAAAAAAAAAAAAAAAAAAAAAAAAAAAAAAAAAAAAAAAAAAAAAAAAAAAAAAAAAAAAAAAAAAAAAAAAAAAAAAAAAAAAAAAAAAAAAAAAAAAAAAAAAAAAAAAAAAAAAAAAAAAAAAAAAAAAAAAAAAAAAAAAAAAAAAAAAAAAAAAAAAAAAAAAAAAAAAAAAAAAAAAAAAAAAAAAAAAAAAAAAAAAAAAAAAAAAAAAAAAAAAAAAAAAAAAAAAAAAAAAAAAAAAAAAAAAAAAAAAAAAAAAAAAAAAAAAAAAAAAAAAAAAAAAAAAAAAAAAAAAAAAAAAAAAAAAAAAAAAAAAAAAAAAAAAAAAAAAAAAAAAAAAAAAAAAAAAAAAAAAAAAAAAAAAAAAAAAAAAAAAAAAAAAAAAAAAAAAAAAAAAAAAAAAAAAAAAAAAAAAAAAAAAAAAAAAAAAAAAAAAAAAAAAAAAAAAAAAAAAAAAAAAAAAAAAAAAAAAAAAAAAAAAAAAAAAAAAAAAAAAAAAAAAAAAAAAAAAAAAAAAAAAAAAAAAAAAAAAAAAAAAAAAAAAAAAAAAAAAAAAAAAAAAAAAAAAAAAAAAAAAAAAAAAAAAAAAAAAAAAAAAAAAAAAAAAAAAAAAAAAAAAAAAAAAAAAAAAAAAAAAAAAAAAAAAAAAAAAAAAAAAAAAAAAAAAAAAAAAAAAAAAAAAAAAAAAAAAAAAAAAAAAAAAAAAAAAAAAAAAAAAAAAAAAAAAAAAAAAAAAAAAAAAAAAAAAAAAAAAAAAAAAAAAAAAAAAAAAAAAAAAAAAAAAAAAAAAAAAAAAAAAAAAAAAAAAAAAAAAAAAAAAAAAAAAAAAAAAAAAAAAAAAAAAAAAAAAAAAAAAAAAAAAAAAAAAAAAAAAAAAAAAAAAAAAAAAAAAAAAAAAAAAAAAAAAAAAAAAAAAAAAAAAAAAAAAAAAAAAAAAAAAAAAAAAAAAAAAAAAAAAAAAAAAAAAAAAAAAAAAAAAAAAAAAAAAAAAAAAAAAAAAAAAAAAAAAAAAAAAAAAAAAAAAAAAAAAAAAAAAAAAAAAAAAAAAAAAAAAAAAAAAAAAAAAAAAAAAAAAAAAAAAAAAAAAAAAAAAAAAAAAAAAAAAAAAAAAAAAAAAAAAAAAAAAAAAAAAAAAAAAAAAAAAAAAAAAAAAAAAAAAAAAAAAAAAAAAAAAAAAAAAAAAAAAAAAAAAAAAAAAAAAAAAAAAAAAAAAAAAAAAAAAAAAAAAAAAAAAAAAAAAAAAAAAAAAAAAAAAAAAAAAAAAAAAAAAAAAAAAAAAAAAAAAAAAAAAAAAAAAAAAAAAAAAAAAAAAAAAAAAAAAAAAAAAAAAAAAAAAAAAAAAAAAAAAAAAAAAAAAAAAAAAAAAAAAAAAAAAAAAAAAAAAAAAAAAAAAAAAAAAAAAAAAAAAAAAAAAAAAAAAAAAAAAAAAAAAAAAAAAAAAAAAAAAAAAAAAAAAAAAAAAAAAAAAAAAAAAAAAAAAAAAAAAAAAAAAAAAAAAAAAAAAAAAAAAAAAAAAAAAAAAAAAAAAAAAAAAAAAAAAAAAAAAAAAAAAAAAAAAAAAAAAAAAAAAAAAAAAAAAAAAAAAAAAAAAAAAAAAAAAAAAAAAAAAAAAAAAAAAAAAAAAAAAAAAAAAAAAAAAAAAAAAAAAAAAAAAAAAAAAAAAAAAAAAAAAAAAAAAAAAAAAAAAAAAAAAAAAAAAAAAAAAAAAAAAAAAAAAAAAAAAAAAAAAAAAAAAAAAAAAAAAAAAAAAAAAAAAAAAAAAAAAAAAAAAAAAAAAAAAAAAAAAAAAAAAAAAAAAAAAAAAAAAAAAAAAAAAAAAAAAAAAAAAAAAAAAAAAAAAAAAAAAAAAAAAAAAAAAAAAAAAAAAAAAAAAAAAAAAAAAAAAAAAAAAAAAAAAAAAAAAAAAAAAAAAAAAAAAAAAAAAAAAAAAAAAAAAAAAAAAAAAAAAAAAAAAAAAAAAAAAAAAAAAAAAAAAAAAAAAAAAAAAAAAAAAAAAAAAAAAAAAAAAAAAAAAAAAAAAAAAAAAAAAAAAAAAAAAAAAAAAAAAAAAAAAAAAAAAAAAAAAAAAAAAAAAAAAAAAAAAAAAAAAAAAAAAAAAAAAAAAAAAAAAAAAAAAAAAAAAAAAAAAAAAAAAAAAAAAAAAAAAAAAAAAAAAAAAAAAAAAAAAAAAAAAAAAAAAAAAAAAAAAAAAAAAAAAAAAAAAAAAAAAAAAAAAAAAAAAAAAAAAAAAAAAAAAAAAAAAAAAAAAAAAAAAAAAAAAAAAAAAAAAAAAAAAAAAAAAAAAAAAAAAAAAAAAAAAAAAAAAAAAAAAAAAAAAAAAAAAAAAAAAAAAAAAAAAAAAAAAAAAAAAAAAAAAAAAAAAAAAAAAAAAAAAAAAAAAAAAAAAAAAAAAAAAAAAAAAAAAAAAAAAAAAAAAAAAAAAAAAAAAAAAAAAAAAAAAAAAAAAAAAAAAAAAAAAAAAAAAAAAAAAAAAAAAAAAAAAAAAAAAAAAAAAAAAAAAAAAAAAAAAAAAAAAAAAAAAAAAAAAAAAAAAAAAAAAAAAAAAAAAAAAAAAAAAAAAAAAAAAAAAAAAAAAAAAAAAAAAAAAAAAAAAAAAAAAAAAAAAAAAAAAAAAAAAAAAAAAAAAAAAAAAAAAAAAAAAAAAAAAAAAAAAAAAAAAAAAAAAAAAAAAAAAAAAAAAAAAAAAAAAAAAAAAAAAAAAAAAAAAAAAAAAAAAAAAAAAAAAAAAAAAAAAAAAAAAAAAAAAAAAAAAAAAAAAAAAAAAAAAAAAAAAAAAAAAAAAAAAAAAAAAAAAAAAAAAAAAAAAAAAAAAAAAAAAAAAAAAAAAAAAAAAAAAAAAAAAAAAAAAAAAAAAAAAAAAAAAAAAAAAAAAAAAAAAAAAAAAAAAAAAAAAAAAAAAAAAAAAAAAAAAAAAAAAAAAAAAAAAAAAAAAAAAAAAAAAAAAAAAAAAAAAAAAAAAAAAAAAAAAAAAAAAAAAAAAAAAAAAAAAAAAAAAAAAAAAAAAAAAAAAAAAAAAAAAAAAAAAAAAAAAAAAAAAAAAAAAAAAAAAAAAAAAAAAAAAAAAAAAAAAAAAAAAAAAAAAAAAAAAAAAAAAAAAAAAAAAAAAAAAAAAAAAAPZYQIVGqkUShnxm/T7Fx/7fp3H12Zcl/AY+xzNSw/2t5vTiILlYOo6/rwoTEGW5l8t2F9lMtQYQca1vxwsAQ6//PEA=</c2pa:manifest></metadata><rect x="0" y="0" width="1680" height="1188" fill="#ffffff" stroke="none"/><g font-family="Helvetica, Arial, sans-serif" fill="none" stroke="#111111" color="#111111" stroke-width="2" stroke-linecap="round" stroke-linejoin="round"><text x="140" y="26" font-size="12" font-weight="600" text-anchor="middle" fill="currentColor" stroke="none" opacity="0.8">1</text><text x="140" y="1174" font-size="12" font-weight="600" text-anchor="middle" fill="currentColor" stroke="none" opacity="0.8">1</text><line x1="240" y1="0" x2="240" y2="40" stroke-width="1"/><line x1="240" y1="1148" x2="240" y2="1188" stroke-width="1"/><text x="340" y="26" font-size="12" font-weight="600" text-anchor="middle" fill="currentColor" stroke="none" opacity="0.8">2</text><text x="340" y="1174" font-size="12" font-weight="600" text-anchor="middle" fill="currentColor" stroke="none" opacity="0.8">2</text><line x1="440" y1="0" x2="440" y2="40" stroke-width="1"/><line x1="440" y1="1148" x2="440" y2="1188" stroke-width="1"/><text x="540" y="26" font-size="12" font-weight="600" text-anchor="middle" fill="currentColor" stroke="none" opacity="0.8">3</text><text x="540" y="1174" font-size="12" font-weight="600" text-anchor="middle" fill="currentColor" stroke="none" opacity="0.8">3</text><line x1="640" y1="0" x2="640" y2="40" stroke-width="1"/><line x1="640" y1="1148" x2="640" y2="1188" stroke-width="1"/><text x="740" y="26" font-size="12" font-weight="600" text-anchor="middle" fill="currentColor" stroke="none" opacity="0.8">4</text><text x="740" y="1174" font-size="12" font-weight="600" text-anchor="middle" fill="currentColor" stroke="none" opacity="0.8">4</text><line x1="840" y1="0" x2="840" y2="40" stroke-width="1"/><line x1="840" y1="1148" x2="840" y2="1188" stroke-width="1"/><text x="940" y="26" font-size="12" font-weight="600" text-anchor="middle" fill="currentColor" stroke="none" opacity="0.8">5</text><text x="940" y="1174" font-size="12" font-weight="600" text-anchor="middle" fill="currentColor" stroke="none" opacity="0.8">5</text><line x1="1040" y1="0" x2="1040" y2="40" stroke-width="1"/><line x1="1040" y1="1148" x2="1040" y2="1188" stroke-width="1"/><text x="1140" y="26" font-size="12" font-weight="600" text-anchor="middle" fill="currentColor" stroke="none" opacity="0.8">6</text><text x="1140" y="1174" font-size="12" font-weight="600" text-anchor="middle" fill="currentColor" stroke="none" opacity="0.8">6</text><line x1="1240" y1="0" x2="1240" y2="40" stroke-width="1"/><line x1="1240" y1="1148" x2="1240" y2="1188" stroke-width="1"/><text x="1340" y="26" font-size="12" font-weight="600" text-anchor="middle" fill="currentColor" stroke="none" opacity="0.8">7</text><text x="1340" y="1174" font-size="12" font-weight="600" text-anchor="middle" fill="currentColor" stroke="none" opacity="0.8">7</text><line x1="1440" y1="0" x2="1440" y2="40" stroke-width="1"/><line x1="1440" y1="1148" x2="1440" y2="1188" stroke-width="1"/><text x="1540" y="26" font-size="12" font-weight="600" text-anchor="middle" fill="currentColor" stroke="none" opacity="0.8">8</text><text x="1540" y="1174" font-size="12" font-weight="600" text-anchor="middle" fill="currentColor" stroke="none" opacity="0.8">8</text><text x="20" y="136.33" font-size="12" font-weight="600" text-anchor="middle" fill="currentColor" stroke="none" opacity="0.8">A</text><text x="1660" y="136.33" font-size="12" font-weight="600" text-anchor="middle" fill="currentColor" stroke="none" opacity="0.8">A</text><line x1="0" y1="224.67" x2="40" y2="224.67" stroke-width="1"/><line x1="1640" y1="224.67" x2="1680" y2="224.67" stroke-width="1"/><text x="20" y="321" font-size="12" font-weight="600" text-anchor="middle" fill="currentColor" stroke="none" opacity="0.8">B</text><text x="1660" y="321" font-size="12" font-weight="600" text-anchor="middle" fill="currentColor" stroke="none" opacity="0.8">B</text><line x1="0" y1="409.33" x2="40" y2="409.33" stroke-width="1"/><line x1="1640" y1="409.33" x2="1680" y2="409.33" stroke-width="1"/><text x="20" y="505.67" font-size="12" font-weight="600" text-anchor="middle" fill="currentColor" stroke="none" opacity="0.8">C</text><text x="1660" y="505.67" font-size="12" font-weight="600" text-anchor="middle" fill="currentColor" stroke="none" opacity="0.8">C</text><line x1="0" y1="594" x2="40" y2="594" stroke-width="1"/><line x1="1640" y1="594" x2="1680" y2="594" stroke-width="1"/><text x="20" y="690.33" font-size="12" font-weight="600" text-anchor="middle" fill="currentColor" stroke="none" opacity="0.8">D</text><text x="1660" y="690.33" font-size="12" font-weight="600" text-anchor="middle" fill="currentColor" stroke="none" opacity="0.8">D</text><line x1="0" y1="778.67" x2="40" y2="778.67" stroke-width="1"/><line x1="1640" y1="778.67" x2="1680" y2="778.67" stroke-width="1"/><text x="20" y="875" font-size="12" font-weight="600" text-anchor="middle" fill="currentColor" stroke="none" opacity="0.8">E</text><text x="1660" y="875" font-size="12" font-weight="600" text-anchor="middle" fill="currentColor" stroke="none" opacity="0.8">E</text><line x1="0" y1="963.33" x2="40" y2="963.33" stroke-width="1"/><line x1="1640" y1="963.33" x2="1680" y2="963.33" stroke-width="1"/><text x="20" y="1059.67" font-size="12" font-weight="600" text-anchor="middle" fill="currentColor" stroke="none" opacity="0.8">F</text><text x="1660" y="1059.67" font-size="12" font-weight="600" text-anchor="middle" fill="currentColor" stroke="none" opacity="0.8">F</text><rect x="0" y="0" width="1680" height="1188" stroke-width="1"/><rect x="40" y="40" width="1600" height="1108" stroke-width="3"/><rect x="932" y="1016" width="128" height="120" stroke="none" fill="#1e669e"/><text x="996" y="1085" font-size="22" font-weight="400" text-anchor="middle" fill="#e4f0fa" stroke="none" letter-spacing="3">MURIEL</text><polyline points="948,1050 960,1050 963,1045 968,1055 973,1045 978,1055 981,1050 992,1050" stroke-width="1.5" stroke="#a9cbe8"/><line x1="1032" y1="1050" x2="1042" y2="1050" stroke-width="1.5" stroke="#a9cbe8"/><line x1="1037" y1="1045" x2="1037" y2="1055" stroke-width="1.5" stroke="#a9cbe8"/><line x1="982" y1="1110" x2="1010" y2="1110" stroke-width="1.5" stroke="#a9cbe8"/><line x1="996" y1="1105" x2="996" y2="1115" stroke-width="1.5" stroke="#a9cbe8"/><line x1="1072" y1="1004" x2="1072" y2="1148" stroke-width="1.5"/><text x="1080" y="1018" font-size="9" font-weight="600" text-anchor="start" fill="currentColor" stroke="none" opacity="0.65" letter-spacing="0.6">ORGANISATION</text><text x="1080" y="1041" font-size="15" font-weight="600" text-anchor="start" fill="currentColor" stroke="none">Muriel Schematics</text><line x1="1356" y1="1004" x2="1356" y2="1052" stroke-width="1"/><text x="1364" y="1018" font-size="9" font-weight="600" text-anchor="start" fill="currentColor" stroke="none" opacity="0.65" letter-spacing="0.6">PROJECT</text><text x="1364" y="1041" font-size="15" font-weight="600" text-anchor="start" fill="currentColor" stroke="none">Motor control demo</text><line x1="1072" y1="1052" x2="1640" y2="1052" stroke-width="1"/><text x="1080" y="1066" font-size="9" font-weight="600" text-anchor="start" fill="currentColor" stroke="none" opacity="0.65" letter-spacing="0.6">DRAWING TITLE</text><text x="1080" y="1089" font-size="17" font-weight="700" text-anchor="start" fill="currentColor" stroke="none">DOL starter, power circuit</text><line x1="1356" y1="1052" x2="1356" y2="1100" stroke-width="1"/><text x="1364" y="1066" font-size="9" font-weight="600" text-anchor="start" fill="currentColor" stroke="none" opacity="0.65" letter-spacing="0.6">DETAILS</text><text x="1364" y="1089" font-size="15" font-weight="600" text-anchor="start" fill="currentColor" stroke="none">3-phase, direct on line</text><line x1="1072" y1="1100" x2="1640" y2="1100" stroke-width="1"/><text x="1080" y="1114" font-size="9" font-weight="600" text-anchor="start" fill="currentColor" stroke="none" opacity="0.65" letter-spacing="0.6">DRAWN BY</text><line x1="1192" y1="1100" x2="1192" y2="1148" stroke-width="1"/><text x="1200" y="1114" font-size="9" font-weight="600" text-anchor="start" fill="currentColor" stroke="none" opacity="0.65" letter-spacing="0.6">DRAWING NO.</text><text x="1200" y="1137" font-size="14" font-weight="600" text-anchor="start" fill="currentColor" stroke="none">MUR-001</text><line x1="1320" y1="1100" x2="1320" y2="1148" stroke-width="1"/><text x="1328" y="1114" font-size="9" font-weight="600" text-anchor="start" fill="currentColor" stroke="none" opacity="0.65" letter-spacing="0.6">DATE</text><text x="1328" y="1137" font-size="14" font-weight="600" text-anchor="start" fill="currentColor" stroke="none">2026-09-28</text><line x1="1424" y1="1100" x2="1424" y2="1148" stroke-width="1"/><text x="1432" y="1114" font-size="9" font-weight="600" text-anchor="start" fill="currentColor" stroke="none" opacity="0.65" letter-spacing="0.6">SCALE</text><text x="1432" y="1137" font-size="14" font-weight="600" text-anchor="start" fill="currentColor" stroke="none">NTS</text><line x1="1496" y1="1100" x2="1496" y2="1148" stroke-width="1"/><text x="1504" y="1114" font-size="9" font-weight="600" text-anchor="start" fill="currentColor" stroke="none" opacity="0.65" letter-spacing="0.6">REV.</text><text x="1504" y="1137" font-size="14" font-weight="600" text-anchor="start" fill="currentColor" stroke="none">A</text><line x1="1544" y1="1100" x2="1544" y2="1148" stroke-width="1"/><text x="1552" y="1114" font-size="9" font-weight="600" text-anchor="start" fill="currentColor" stroke="none" opacity="0.65" letter-spacing="0.6">SHEET</text><text x="1552" y="1137" font-size="14" font-weight="600" text-anchor="start" fill="currentColor" stroke="none">1 / 1</text><rect x="920" y="1004" width="720" height="144" stroke-width="2"/><rect x="660" y="380" width="400" height="280" stroke-width="1" stroke-dasharray="10 4 2 4"/><path d="M720,200 L720,260"/><path d="M760,200 L760,260"/><path d="M800,200 L800,260"/><path d="M720,340 L720,400"/><path d="M760,340 L760,400"/><path d="M800,340 L800,400"/><path d="M720,480 L720,540"/><path d="M760,480 L760,540"/><path d="M800,480 L800,540"/><path d="M720,640 L720,700"/><path d="M760,640 L760,700"/><path d="M800,640 L800,700"/><g transform="translate(800 180) rotate(0) translate(-100 -40)"><line x1="0" y1="20" x2="200" y2="20"/><line x1="20" y1="20" x2="20" y2="60"/><line x1="60" y1="20" x2="60" y2="60"/><line x1="100" y1="20" x2="100" y2="60"/><line x1="140" y1="20" x2="140" y2="60"/><line x1="180" y1="20" x2="180" y2="60"/><text x="20" y="12" font-size="12" font-weight="600" text-anchor="middle" fill="currentColor" stroke="none">L1</text><text x="60" y="12" font-size="12" font-weight="600" text-anchor="middle" fill="currentColor" stroke="none">L2</text><text x="100" y="12" font-size="12" font-weight="600" text-anchor="middle" fill="currentColor" stroke="none">L3</text><text x="140" y="12" font-size="12" font-weight="600" text-anchor="middle" fill="currentColor" stroke="none">N</text><text x="180" y="12" font-size="12" font-weight="600" text-anchor="middle" fill="currentColor" stroke="none">PE</text></g><g transform="translate(760 300) rotate(0) translate(-60 -40)"><line x1="20" y1="0" x2="20" y2="24"/><line x1="20" y1="56" x2="20" y2="80"/><line x1="20" y1="56" x2="36" y2="24"/><line x1="15" y1="19" x2="25" y2="29"/><line x1="15" y1="29" x2="25" y2="19"/><line x1="60" y1="0" x2="60" y2="24"/><line x1="60" y1="56" x2="60" y2="80"/><line x1="60" y1="56" x2="76" y2="24"/><line x1="55" y1="19" x2="65" y2="29"/><line x1="55" y1="29" x2="65" y2="19"/><line x1="100" y1="0" x2="100" y2="24"/><line x1="100" y1="56" x2="100" y2="80"/><line x1="100" y1="56" x2="116" y2="24"/><line x1="95" y1="19" x2="105" y2="29"/><line x1="95" y1="29" x2="105" y2="19"/><line x1="28" y1="40" x2="108" y2="40" stroke-dasharray="6 4"/></g><g transform="translate(820 440) rotate(0) translate(-120 -40)"><line x1="20" y1="0" x2="20" y2="24"/><line x1="20" y1="56" x2="20" y2="80"/><line x1="20" y1="56" x2="36" y2="24"/><line x1="60" y1="0" x2="60" y2="24"/><line x1="60" y1="56" x2="60" y2="80"/><line x1="60" y1="56" x2="76" y2="24"/><line x1="100" y1="0" x2="100" y2="24"/><line x1="100" y1="56" x2="100" y2="80"/><line x1="100" y1="56" x2="116" y2="24"/><line x1="28" y1="40" x2="160" y2="40" stroke-dasharray="6 4"/><line x1="180" y1="0" x2="180" y2="20"/><rect x="160" y="20" width="40" height="40"/><line x1="180" y1="60" x2="180" y2="80"/></g><g transform="translate(760 600) rotate(0) translate(-60 -60)"><rect x="0" y="20" width="120" height="60"/><line x1="20" y1="0" x2="20" y2="32"/><polyline points="20,32 30,32 30,68 20,68"/><line x1="20" y1="68" x2="20" y2="100"/><line x1="60" y1="0" x2="60" y2="32"/><polyline points="60,32 70,32 70,68 60,68"/><line x1="60" y1="68" x2="60" y2="100"/><line x1="100" y1="0" x2="100" y2="32"/><polyline points="100,32 110,32 110,68 100,68"/><line x1="100" y1="68" x2="100" y2="100"/></g><g transform="translate(760 760) rotate(0) translate(-60 -60)"><polyline points="20,0 20,30 34,55"/><line x1="60" y1="0" x2="60" y2="40"/><polyline points="100,0 100,30 86,55"/><circle cx="60" cy="70" r="30"/><text x="60" y="68" font-size="20" font-weight="700" text-anchor="middle" fill="currentColor" stroke="none">M</text><text x="60" y="88" font-size="13" font-weight="600" text-anchor="middle" fill="currentColor" stroke="none">3~</text></g><text x="830" y="276" font-size="14" font-weight="600" fill="#111111" stroke="none">Q1</text><text x="830" y="292" font-size="12" font-weight="500" fill="#111111" stroke="none">32 A, 10 kA</text><text x="830" y="308" font-size="12" font-weight="400" fill="#111111" stroke="none" opacity="0.7">Main breaker</text><text x="930" y="416" font-size="14" font-weight="600" fill="#111111" stroke="none">K1</text><text x="930" y="432" font-size="12" font-weight="500" fill="#111111" stroke="none">AC-3, 25 A</text><text x="930" y="448" font-size="12" font-weight="400" fill="#111111" stroke="none" opacity="0.7">Motor contactor</text><text x="830" y="556" font-size="14" font-weight="600" fill="#111111" stroke="none">F1</text><text x="830" y="572" font-size="12" font-weight="500" fill="#111111" stroke="none">12 to 18 A</text><text x="830" y="588" font-size="12" font-weight="400" fill="#111111" stroke="none" opacity="0.7">Overload relay</text><text x="830" y="716" font-size="14" font-weight="600" fill="#111111" stroke="none">M1</text><text x="830" y="732" font-size="12" font-weight="500" fill="#111111" stroke="none">7.5 kW, 400 V</text><text x="830" y="748" font-size="12" font-weight="400" fill="#111111" stroke="none" opacity="0.7">Pump motor</text><text transform="translate(100 200)" font-size="14" font-weight="700" text-anchor="start" fill="#111111" stroke="none"><tspan x="0" dy="0">NOTES</tspan></text><text transform="translate(100 228)" font-size="12" font-weight="400" text-anchor="start" fill="#111111" stroke="none"><tspan x="0" dy="0">1. Wire size 2.5 mm² unless stated.</tspan><tspan x="0" dy="15.6">2. Set the overload relay to the motor nameplate current.</tspan></text><text transform="translate(668 372)" font-size="10" font-weight="400" text-anchor="start" fill="#111111" stroke="none"><tspan x="0" dy="0">Motor control panel MCC-1</tspan></text></g></svg>